#define iconify_width 9
#define iconify_height 9
static unsigned char iconify_bits[] = {
   0x38, 0x00, 0x7c, 0x00, 0x7c, 0x00, 0xfe, 0x00, 0xfe, 0x00, 0xff, 0x01,
   0xff, 0x01, 0xff, 0x01, 0xfe, 0x00 };
