#define max_width 9
#define max_height 9
static unsigned char max_bits[] = {
   0x00, 0x00, 0x00, 0x00, 0x6c, 0x00, 0x6c, 0x00, 0x00, 0x00, 0x60, 0x00,
   0x60, 0x00, 0x00, 0x00, 0x00, 0x00 };
