#define max_toggled_width 9
#define max_toggled_height 9
static unsigned char max_toggled_bits[] = {
   0x7c, 0x00, 0xfe, 0x00, 0xff, 0x01, 0xff, 0x01, 0xff, 0x01, 0xff, 0x01,
   0xff, 0x01, 0xfe, 0x00, 0x7c, 0x00 };
