#define shade_width 9
#define shade_height 9
static unsigned char shade_bits[] = {
   0x7c, 0x00, 0xfe, 0x00, 0xfe, 0x00, 0xfe, 0x00, 0xfe, 0x00, 0xfe, 0x00,
   0xfe, 0x00, 0xfe, 0x00, 0xc6, 0x00 };
